{
	"patcher" : 	{
		"fileversion" : 1,
		"appversion" : 		{
			"major" : 8,
			"minor" : 0,
			"revision" : 3,
			"architecture" : "x64",
			"modernui" : 1
		}
,
		"classnamespace" : "box",
		"rect" : [ 1271.0, 187.0, 1041.0, 820.0 ],
		"bglocked" : 0,
		"openinpresentation" : 0,
		"default_fontsize" : 12.0,
		"default_fontface" : 0,
		"default_fontname" : "Arial",
		"gridonopen" : 1,
		"gridsize" : [ 15.0, 15.0 ],
		"gridsnaponopen" : 1,
		"objectsnaponopen" : 1,
		"statusbarvisible" : 2,
		"toolbarvisible" : 1,
		"lefttoolbarpinned" : 0,
		"toptoolbarpinned" : 0,
		"righttoolbarpinned" : 0,
		"bottomtoolbarpinned" : 0,
		"toolbars_unpinned_last_save" : 0,
		"tallnewobj" : 0,
		"boxanimatetime" : 200,
		"enablehscroll" : 1,
		"enablevscroll" : 1,
		"devicewidth" : 0.0,
		"description" : "",
		"digest" : "",
		"tags" : "",
		"style" : "",
		"subpatcher_template" : "",
		"boxes" : [ 			{
				"box" : 				{
					"id" : "obj-33",
					"maxclass" : "toggle",
					"numinlets" : 1,
					"numoutlets" : 1,
					"outlettype" : [ "int" ],
					"parameter_enable" : 0,
					"patching_rect" : [ 730.0, 689.0, 24.0, 24.0 ]
				}

			}
, 			{
				"box" : 				{
					"fontname" : "Arial",
					"fontsize" : 11.0,
					"id" : "obj-32",
					"maxclass" : "comment",
					"numinlets" : 1,
					"numoutlets" : 0,
					"patching_rect" : [ 82.0, 100.0, 203.0, 19.0 ],
					"presentation_linecount" : 4,
					"text" : "assumes soundfile is ambiX ACN SN3D"
				}

			}
, 			{
				"box" : 				{
					"fontname" : "Arial",
					"fontsize" : 11.0,
					"id" : "obj-28",
					"maxclass" : "comment",
					"numinlets" : 1,
					"numoutlets" : 0,
					"patching_rect" : [ 658.0, 742.0, 156.0, 19.0 ],
					"text" : "record for ambiX FOA"
				}

			}
, 			{
				"box" : 				{
					"id" : "obj-29",
					"maxclass" : "message",
					"numinlets" : 2,
					"numoutlets" : 1,
					"outlettype" : [ "" ],
					"patching_rect" : [ 682.0, 689.0, 35.0, 22.0 ],
					"text" : "open"
				}

			}
, 			{
				"box" : 				{
					"id" : "obj-30",
					"maxclass" : "newobj",
					"numinlets" : 4,
					"numoutlets" : 1,
					"outlettype" : [ "signal" ],
					"patching_rect" : [ 526.5, 742.0, 113.0, 22.0 ],
					"text" : "sfrecord~ 4"
				}

			}
, 			{
				"box" : 				{
					"channels" : 4,
					"id" : "obj-31",
					"lastchannelcount" : 0,
					"maxclass" : "live.gain~",
					"numinlets" : 4,
					"numoutlets" : 7,
					"outlettype" : [ "signal", "signal", "signal", "signal", "", "float", "list" ],
					"parameter_enable" : 1,
					"patching_rect" : [ 526.5, 600.0, 207.0, 81.0 ],
					"relative" : 1,
					"saved_attribute_attributes" : 					{
						"valueof" : 						{
							"parameter_mmax" : 6.0,
							"parameter_initial" : [ 0 ],
							"parameter_shortname" : "b-format stream",
							"parameter_type" : 0,
							"parameter_unitstyle" : 4,
							"parameter_mmin" : -70.0,
							"parameter_longname" : "live.gain~[6]",
							"parameter_initial_enable" : 1
						}

					}
,
					"showname" : 0,
					"varname" : "live.gain~[2]"
				}

			}
, 			{
				"box" : 				{
					"fontname" : "Arial",
					"fontsize" : 11.0,
					"id" : "obj-16",
					"maxclass" : "comment",
					"numinlets" : 1,
					"numoutlets" : 0,
					"patching_rect" : [ 149.0, 742.0, 156.0, 19.0 ],
					"text" : "record for FuMa FOA"
				}

			}
, 			{
				"box" : 				{
					"id" : "obj-14",
					"maxclass" : "toggle",
					"numinlets" : 1,
					"numoutlets" : 1,
					"outlettype" : [ "int" ],
					"parameter_enable" : 0,
					"patching_rect" : [ 207.0, 689.0, 24.0, 24.0 ]
				}

			}
, 			{
				"box" : 				{
					"id" : "obj-15",
					"maxclass" : "message",
					"numinlets" : 2,
					"numoutlets" : 1,
					"outlettype" : [ "" ],
					"patching_rect" : [ 166.0, 689.0, 35.0, 22.0 ],
					"text" : "open"
				}

			}
, 			{
				"box" : 				{
					"id" : "obj-13",
					"maxclass" : "newobj",
					"numinlets" : 4,
					"numoutlets" : 1,
					"outlettype" : [ "signal" ],
					"patching_rect" : [ 10.5, 742.0, 113.0, 22.0 ],
					"text" : "sfrecord~ 4"
				}

			}
, 			{
				"box" : 				{
					"id" : "obj-10",
					"maxclass" : "toggle",
					"numinlets" : 1,
					"numoutlets" : 1,
					"outlettype" : [ "int" ],
					"parameter_enable" : 0,
					"patching_rect" : [ 49.0, 60.0, 24.0, 24.0 ]
				}

			}
, 			{
				"box" : 				{
					"id" : "obj-7",
					"maxclass" : "message",
					"numinlets" : 2,
					"numoutlets" : 1,
					"outlettype" : [ "" ],
					"patching_rect" : [ 8.0, 60.0, 35.0, 22.0 ],
					"text" : "open"
				}

			}
, 			{
				"box" : 				{
					"id" : "obj-4",
					"maxclass" : "newobj",
					"numinlets" : 2,
					"numoutlets" : 17,
					"outlettype" : [ "signal", "signal", "signal", "signal", "signal", "signal", "signal", "signal", "signal", "signal", "signal", "signal", "signal", "signal", "signal", "signal", "bang" ],
					"patching_rect" : [ 8.0, 120.0, 277.025054931640625, 22.0 ],
					"saved_object_attributes" : 					{
						"basictuning" : 440,
						"followglobaltempo" : 0,
						"formantcorrection" : 0,
						"mode" : "basic",
						"originallength" : [ 0.0, "ticks" ],
						"originaltempo" : 120.0,
						"pitchcorrection" : 0,
						"quality" : "basic",
						"timestretch" : [ 0 ]
					}
,
					"text" : "sfplay~ 16"
				}

			}
, 			{
				"box" : 				{
					"bubbleside" : 0,
					"fontname" : "Arial",
					"fontsize" : 11.0,
					"id" : "obj-35",
					"maxclass" : "comment",
					"numinlets" : 1,
					"numoutlets" : 0,
					"patching_rect" : [ 451.0, 67.0, 122.0, 19.0 ],
					"text" : "downgrade to 1st order",
					"textjustification" : 1
				}

			}
, 			{
				"box" : 				{
					"fontface" : 1,
					"fontsize" : 12.0,
					"id" : "obj-96",
					"maxclass" : "comment",
					"numinlets" : 1,
					"numoutlets" : 0,
					"patching_rect" : [ 8.880434036254883, 8.0, 199.0, 20.0 ],
					"text" : "Downgrade a HOA stream to FOA",
					"textjustification" : 1
				}

			}
, 			{
				"box" : 				{
					"fontname" : "Arial",
					"fontsize" : 11.0,
					"id" : "obj-18",
					"linecount" : 2,
					"maxclass" : "newobj",
					"numinlets" : 4,
					"numoutlets" : 5,
					"outlettype" : [ "signal", "signal", "signal", "signal", "" ],
					"patching_rect" : [ 11.0, 560.0, 269.0, 33.0 ],
					"saved_object_attributes" : 					{
						"parameter_enable" : 0
					}
,
					"text" : "spat5.hoa.sorting~ @order 1 @dimension 3D @initwith \"/sorting/input ACN, /sorting/output FMH\""
				}

			}
, 			{
				"box" : 				{
					"channels" : 4,
					"id" : "obj-1",
					"lastchannelcount" : 0,
					"maxclass" : "live.gain~",
					"numinlets" : 4,
					"numoutlets" : 7,
					"outlettype" : [ "signal", "signal", "signal", "signal", "", "float", "list" ],
					"parameter_enable" : 1,
					"patching_rect" : [ 10.5, 600.0, 207.0, 81.0 ],
					"relative" : 1,
					"saved_attribute_attributes" : 					{
						"valueof" : 						{
							"parameter_mmax" : 6.0,
							"parameter_initial" : [ 0 ],
							"parameter_shortname" : "b-format stream",
							"parameter_type" : 0,
							"parameter_unitstyle" : 4,
							"parameter_mmin" : -70.0,
							"parameter_longname" : "live.gain~[12]",
							"parameter_initial_enable" : 1
						}

					}
,
					"showname" : 0,
					"varname" : "live.gain~[4]"
				}

			}
, 			{
				"box" : 				{
					"fontname" : "Arial",
					"fontsize" : 11.0,
					"id" : "obj-118",
					"maxclass" : "comment",
					"numinlets" : 1,
					"numoutlets" : 0,
					"patching_rect" : [ 210.0, 610.0, 254.0, 19.0 ],
					"text" : "B-format stream (WXYZ -- with X pointing forward)"
				}

			}
, 			{
				"box" : 				{
					"fontname" : "Arial",
					"fontsize" : 11.0,
					"id" : "obj-86",
					"linecount" : 2,
					"maxclass" : "newobj",
					"numinlets" : 4,
					"numoutlets" : 5,
					"outlettype" : [ "signal", "signal", "signal", "signal", "" ],
					"patching_rect" : [ 11.0, 510.0, 269.0, 33.0 ],
					"saved_object_attributes" : 					{
						"parameter_enable" : 0
					}
,
					"text" : "spat5.hoa.converter~ @order 1 @dimension 3D @initwith \"/norm/input SN3D, /norm/output FuMa\""
				}

			}
, 			{
				"box" : 				{
					"id" : "obj-3",
					"maxclass" : "newobj",
					"numinlets" : 1,
					"numoutlets" : 1,
					"outlettype" : [ "bang" ],
					"patching_rect" : [ 451.0, 100.0, 58.0, 22.0 ],
					"text" : "loadbang"
				}

			}
, 			{
				"box" : 				{
					"fontname" : "Arial",
					"fontsize" : 11.0,
					"id" : "obj-27",
					"maxclass" : "comment",
					"numinlets" : 1,
					"numoutlets" : 0,
					"patching_rect" : [ 243.0, 426.0, 90.0, 19.0 ],
					"text" : "FOA stream"
				}

			}
, 			{
				"box" : 				{
					"fontname" : "Arial",
					"fontsize" : 11.0,
					"id" : "obj-26",
					"maxclass" : "comment",
					"numinlets" : 1,
					"numoutlets" : 0,
					"patching_rect" : [ 248.0, 251.0, 116.0, 19.0 ],
					"text" : "3rd order HOA stream"
				}

			}
, 			{
				"box" : 				{
					"fontname" : "Arial",
					"fontsize" : 11.0,
					"id" : "obj-25",
					"linecount" : 8,
					"maxclass" : "comment",
					"numinlets" : 1,
					"numoutlets" : 0,
					"patching_rect" : [ 670.0, 84.5, 170.0, 105.0 ],
					"text" : "\"discard\" mode : higher order components are simply discarded\n\n\"compensation\" : apply order-dependent gain factors for diffuse-field energy preservation (after decoding)"
				}

			}
, 			{
				"box" : 				{
					"id" : "obj-24",
					"maxclass" : "live.tab",
					"num_lines_patching" : 2,
					"num_lines_presentation" : 0,
					"numinlets" : 1,
					"numoutlets" : 3,
					"outlettype" : [ "", "", "float" ],
					"parameter_enable" : 1,
					"patching_rect" : [ 588.0, 102.5, 70.0, 42.0 ],
					"saved_attribute_attributes" : 					{
						"valueof" : 						{
							"parameter_initial" : [ 1.0 ],
							"parameter_shortname" : "live.menu[1]",
							"parameter_enum" : [ "discard", "compensation" ],
							"parameter_type" : 2,
							"parameter_unitstyle" : 0,
							"parameter_longname" : "live.menu[2]",
							"parameter_initial_enable" : 1
						}

					}
,
					"varname" : "live.menu"
				}

			}
, 			{
				"box" : 				{
					"id" : "obj-23",
					"maxclass" : "message",
					"numinlets" : 2,
					"numoutlets" : 1,
					"outlettype" : [ "" ],
					"patching_rect" : [ 588.0, 152.0, 60.0, 22.0 ],
					"text" : "/mode $1"
				}

			}
, 			{
				"box" : 				{
					"id" : "obj-20",
					"maxclass" : "message",
					"numinlets" : 2,
					"numoutlets" : 1,
					"outlettype" : [ "" ],
					"patching_rect" : [ 451.0, 128.0, 88.0, 22.0 ],
					"text" : "/order/output 1"
				}

			}
, 			{
				"box" : 				{
					"channels" : 16,
					"id" : "obj-6",
					"lastchannelcount" : 0,
					"maxclass" : "live.gain~",
					"numinlets" : 16,
					"numoutlets" : 19,
					"outlettype" : [ "signal", "signal", "signal", "signal", "signal", "signal", "signal", "signal", "signal", "signal", "signal", "signal", "signal", "signal", "signal", "signal", "", "float", "list" ],
					"parameter_enable" : 1,
					"patching_rect" : [ 8.053132057189941, 406.0, 217.0, 75.0 ],
					"relative" : 1,
					"saved_attribute_attributes" : 					{
						"valueof" : 						{
							"parameter_mmax" : 6.0,
							"parameter_initial" : [ 0.0 ],
							"parameter_shortname" : "HOA stream",
							"parameter_type" : 0,
							"parameter_unitstyle" : 4,
							"parameter_mmin" : -70.0,
							"parameter_longname" : "live.gain~[4]"
						}

					}
,
					"showname" : 0,
					"varname" : "live.gain~[1]"
				}

			}
, 			{
				"box" : 				{
					"channels" : 16,
					"id" : "obj-8",
					"lastchannelcount" : 0,
					"maxclass" : "live.gain~",
					"numinlets" : 16,
					"numoutlets" : 19,
					"outlettype" : [ "signal", "signal", "signal", "signal", "signal", "signal", "signal", "signal", "signal", "signal", "signal", "signal", "signal", "signal", "signal", "signal", "", "float", "list" ],
					"parameter_enable" : 1,
					"patching_rect" : [ 8.053132057189941, 230.0, 261.0, 90.0 ],
					"relative" : 1,
					"saved_attribute_attributes" : 					{
						"valueof" : 						{
							"parameter_mmax" : 6.0,
							"parameter_initial" : [ 0.0 ],
							"parameter_shortname" : "HOA stream",
							"parameter_type" : 0,
							"parameter_unitstyle" : 4,
							"parameter_mmin" : -70.0,
							"parameter_longname" : "live.gain~[5]"
						}

					}
,
					"showname" : 0,
					"varname" : "live.gain~"
				}

			}
, 			{
				"box" : 				{
					"fontname" : "Arial",
					"fontsize" : 11.0,
					"id" : "obj-12",
					"maxclass" : "newobj",
					"numinlets" : 1,
					"numoutlets" : 1,
					"outlettype" : [ "" ],
					"patching_rect" : [ 380.0, 294.0, 29.0, 21.0 ],
					"text" : "thru"
				}

			}
, 			{
				"box" : 				{
					"fontname" : "Arial",
					"fontsize" : 11.0,
					"id" : "obj-2",
					"maxclass" : "newobj",
					"numinlets" : 16,
					"numoutlets" : 17,
					"outlettype" : [ "signal", "signal", "signal", "signal", "signal", "signal", "signal", "signal", "signal", "signal", "signal", "signal", "signal", "signal", "signal", "signal", "" ],
					"patching_rect" : [ 8.053132057189941, 340.0, 230.0, 21.0 ],
					"saved_object_attributes" : 					{
						"parameter_enable" : 0
					}
,
					"text" : "spat5.hoa.reduce~ @order 3 @dimension 3D"
				}

			}
 ],
		"lines" : [ 			{
				"patchline" : 				{
					"destination" : [ "obj-13", 3 ],
					"source" : [ "obj-1", 3 ]
				}

			}
, 			{
				"patchline" : 				{
					"destination" : [ "obj-13", 2 ],
					"source" : [ "obj-1", 2 ]
				}

			}
, 			{
				"patchline" : 				{
					"destination" : [ "obj-13", 1 ],
					"source" : [ "obj-1", 1 ]
				}

			}
, 			{
				"patchline" : 				{
					"destination" : [ "obj-13", 0 ],
					"source" : [ "obj-1", 0 ]
				}

			}
, 			{
				"patchline" : 				{
					"destination" : [ "obj-4", 0 ],
					"source" : [ "obj-10", 0 ]
				}

			}
, 			{
				"patchline" : 				{
					"destination" : [ "obj-2", 0 ],
					"midpoints" : [ 389.5, 330.0, 17.553132057189941, 330.0 ],
					"source" : [ "obj-12", 0 ]
				}

			}
, 			{
				"patchline" : 				{
					"destination" : [ "obj-13", 0 ],
					"source" : [ "obj-14", 0 ]
				}

			}
, 			{
				"patchline" : 				{
					"destination" : [ "obj-13", 0 ],
					"source" : [ "obj-15", 0 ]
				}

			}
, 			{
				"patchline" : 				{
					"destination" : [ "obj-1", 3 ],
					"source" : [ "obj-18", 3 ]
				}

			}
, 			{
				"patchline" : 				{
					"destination" : [ "obj-1", 2 ],
					"source" : [ "obj-18", 2 ]
				}

			}
, 			{
				"patchline" : 				{
					"destination" : [ "obj-1", 1 ],
					"source" : [ "obj-18", 1 ]
				}

			}
, 			{
				"patchline" : 				{
					"destination" : [ "obj-1", 0 ],
					"source" : [ "obj-18", 0 ]
				}

			}
, 			{
				"patchline" : 				{
					"destination" : [ "obj-6", 15 ],
					"source" : [ "obj-2", 15 ]
				}

			}
, 			{
				"patchline" : 				{
					"destination" : [ "obj-6", 14 ],
					"source" : [ "obj-2", 14 ]
				}

			}
, 			{
				"patchline" : 				{
					"destination" : [ "obj-6", 13 ],
					"source" : [ "obj-2", 13 ]
				}

			}
, 			{
				"patchline" : 				{
					"destination" : [ "obj-6", 12 ],
					"source" : [ "obj-2", 12 ]
				}

			}
, 			{
				"patchline" : 				{
					"destination" : [ "obj-6", 11 ],
					"source" : [ "obj-2", 11 ]
				}

			}
, 			{
				"patchline" : 				{
					"destination" : [ "obj-6", 10 ],
					"source" : [ "obj-2", 10 ]
				}

			}
, 			{
				"patchline" : 				{
					"destination" : [ "obj-6", 9 ],
					"source" : [ "obj-2", 9 ]
				}

			}
, 			{
				"patchline" : 				{
					"destination" : [ "obj-6", 8 ],
					"source" : [ "obj-2", 8 ]
				}

			}
, 			{
				"patchline" : 				{
					"destination" : [ "obj-6", 7 ],
					"source" : [ "obj-2", 7 ]
				}

			}
, 			{
				"patchline" : 				{
					"destination" : [ "obj-6", 6 ],
					"source" : [ "obj-2", 6 ]
				}

			}
, 			{
				"patchline" : 				{
					"destination" : [ "obj-6", 5 ],
					"source" : [ "obj-2", 5 ]
				}

			}
, 			{
				"patchline" : 				{
					"destination" : [ "obj-6", 4 ],
					"source" : [ "obj-2", 4 ]
				}

			}
, 			{
				"patchline" : 				{
					"destination" : [ "obj-6", 3 ],
					"source" : [ "obj-2", 3 ]
				}

			}
, 			{
				"patchline" : 				{
					"destination" : [ "obj-6", 2 ],
					"source" : [ "obj-2", 2 ]
				}

			}
, 			{
				"patchline" : 				{
					"destination" : [ "obj-6", 1 ],
					"source" : [ "obj-2", 1 ]
				}

			}
, 			{
				"patchline" : 				{
					"destination" : [ "obj-6", 0 ],
					"source" : [ "obj-2", 0 ]
				}

			}
, 			{
				"patchline" : 				{
					"destination" : [ "obj-12", 0 ],
					"midpoints" : [ 460.5, 276.5, 389.5, 276.5 ],
					"source" : [ "obj-20", 0 ]
				}

			}
, 			{
				"patchline" : 				{
					"destination" : [ "obj-12", 0 ],
					"midpoints" : [ 597.5, 276.5, 389.5, 276.5 ],
					"source" : [ "obj-23", 0 ]
				}

			}
, 			{
				"patchline" : 				{
					"destination" : [ "obj-23", 0 ],
					"source" : [ "obj-24", 1 ]
				}

			}
, 			{
				"patchline" : 				{
					"destination" : [ "obj-30", 0 ],
					"source" : [ "obj-29", 0 ]
				}

			}
, 			{
				"patchline" : 				{
					"destination" : [ "obj-20", 0 ],
					"source" : [ "obj-3", 0 ]
				}

			}
, 			{
				"patchline" : 				{
					"destination" : [ "obj-30", 3 ],
					"source" : [ "obj-31", 3 ]
				}

			}
, 			{
				"patchline" : 				{
					"destination" : [ "obj-30", 2 ],
					"source" : [ "obj-31", 2 ]
				}

			}
, 			{
				"patchline" : 				{
					"destination" : [ "obj-30", 1 ],
					"source" : [ "obj-31", 1 ]
				}

			}
, 			{
				"patchline" : 				{
					"destination" : [ "obj-30", 0 ],
					"source" : [ "obj-31", 0 ]
				}

			}
, 			{
				"patchline" : 				{
					"destination" : [ "obj-30", 0 ],
					"source" : [ "obj-33", 0 ]
				}

			}
, 			{
				"patchline" : 				{
					"destination" : [ "obj-8", 15 ],
					"source" : [ "obj-4", 15 ]
				}

			}
, 			{
				"patchline" : 				{
					"destination" : [ "obj-8", 14 ],
					"source" : [ "obj-4", 14 ]
				}

			}
, 			{
				"patchline" : 				{
					"destination" : [ "obj-8", 13 ],
					"source" : [ "obj-4", 13 ]
				}

			}
, 			{
				"patchline" : 				{
					"destination" : [ "obj-8", 12 ],
					"source" : [ "obj-4", 12 ]
				}

			}
, 			{
				"patchline" : 				{
					"destination" : [ "obj-8", 11 ],
					"source" : [ "obj-4", 11 ]
				}

			}
, 			{
				"patchline" : 				{
					"destination" : [ "obj-8", 10 ],
					"source" : [ "obj-4", 10 ]
				}

			}
, 			{
				"patchline" : 				{
					"destination" : [ "obj-8", 9 ],
					"source" : [ "obj-4", 9 ]
				}

			}
, 			{
				"patchline" : 				{
					"destination" : [ "obj-8", 8 ],
					"source" : [ "obj-4", 8 ]
				}

			}
, 			{
				"patchline" : 				{
					"destination" : [ "obj-8", 7 ],
					"source" : [ "obj-4", 7 ]
				}

			}
, 			{
				"patchline" : 				{
					"destination" : [ "obj-8", 6 ],
					"source" : [ "obj-4", 6 ]
				}

			}
, 			{
				"patchline" : 				{
					"destination" : [ "obj-8", 5 ],
					"source" : [ "obj-4", 5 ]
				}

			}
, 			{
				"patchline" : 				{
					"destination" : [ "obj-8", 4 ],
					"source" : [ "obj-4", 4 ]
				}

			}
, 			{
				"patchline" : 				{
					"destination" : [ "obj-8", 3 ],
					"source" : [ "obj-4", 3 ]
				}

			}
, 			{
				"patchline" : 				{
					"destination" : [ "obj-8", 2 ],
					"source" : [ "obj-4", 2 ]
				}

			}
, 			{
				"patchline" : 				{
					"destination" : [ "obj-8", 1 ],
					"source" : [ "obj-4", 1 ]
				}

			}
, 			{
				"patchline" : 				{
					"destination" : [ "obj-8", 0 ],
					"source" : [ "obj-4", 0 ]
				}

			}
, 			{
				"patchline" : 				{
					"destination" : [ "obj-31", 3 ],
					"order" : 0,
					"source" : [ "obj-6", 3 ]
				}

			}
, 			{
				"patchline" : 				{
					"destination" : [ "obj-31", 2 ],
					"order" : 0,
					"source" : [ "obj-6", 2 ]
				}

			}
, 			{
				"patchline" : 				{
					"destination" : [ "obj-31", 1 ],
					"order" : 0,
					"source" : [ "obj-6", 1 ]
				}

			}
, 			{
				"patchline" : 				{
					"destination" : [ "obj-31", 0 ],
					"order" : 0,
					"source" : [ "obj-6", 0 ]
				}

			}
, 			{
				"patchline" : 				{
					"destination" : [ "obj-86", 3 ],
					"order" : 1,
					"source" : [ "obj-6", 3 ]
				}

			}
, 			{
				"patchline" : 				{
					"destination" : [ "obj-86", 2 ],
					"order" : 1,
					"source" : [ "obj-6", 2 ]
				}

			}
, 			{
				"patchline" : 				{
					"destination" : [ "obj-86", 1 ],
					"order" : 1,
					"source" : [ "obj-6", 1 ]
				}

			}
, 			{
				"patchline" : 				{
					"destination" : [ "obj-86", 0 ],
					"order" : 1,
					"source" : [ "obj-6", 0 ]
				}

			}
, 			{
				"patchline" : 				{
					"destination" : [ "obj-4", 0 ],
					"source" : [ "obj-7", 0 ]
				}

			}
, 			{
				"patchline" : 				{
					"destination" : [ "obj-2", 15 ],
					"source" : [ "obj-8", 15 ]
				}

			}
, 			{
				"patchline" : 				{
					"destination" : [ "obj-2", 14 ],
					"source" : [ "obj-8", 14 ]
				}

			}
, 			{
				"patchline" : 				{
					"destination" : [ "obj-2", 13 ],
					"source" : [ "obj-8", 13 ]
				}

			}
, 			{
				"patchline" : 				{
					"destination" : [ "obj-2", 12 ],
					"source" : [ "obj-8", 12 ]
				}

			}
, 			{
				"patchline" : 				{
					"destination" : [ "obj-2", 11 ],
					"source" : [ "obj-8", 11 ]
				}

			}
, 			{
				"patchline" : 				{
					"destination" : [ "obj-2", 10 ],
					"source" : [ "obj-8", 10 ]
				}

			}
, 			{
				"patchline" : 				{
					"destination" : [ "obj-2", 9 ],
					"source" : [ "obj-8", 9 ]
				}

			}
, 			{
				"patchline" : 				{
					"destination" : [ "obj-2", 8 ],
					"source" : [ "obj-8", 8 ]
				}

			}
, 			{
				"patchline" : 				{
					"destination" : [ "obj-2", 7 ],
					"source" : [ "obj-8", 7 ]
				}

			}
, 			{
				"patchline" : 				{
					"destination" : [ "obj-2", 6 ],
					"source" : [ "obj-8", 6 ]
				}

			}
, 			{
				"patchline" : 				{
					"destination" : [ "obj-2", 5 ],
					"source" : [ "obj-8", 5 ]
				}

			}
, 			{
				"patchline" : 				{
					"destination" : [ "obj-2", 4 ],
					"source" : [ "obj-8", 4 ]
				}

			}
, 			{
				"patchline" : 				{
					"destination" : [ "obj-2", 3 ],
					"source" : [ "obj-8", 3 ]
				}

			}
, 			{
				"patchline" : 				{
					"destination" : [ "obj-2", 2 ],
					"source" : [ "obj-8", 2 ]
				}

			}
, 			{
				"patchline" : 				{
					"destination" : [ "obj-2", 1 ],
					"source" : [ "obj-8", 1 ]
				}

			}
, 			{
				"patchline" : 				{
					"destination" : [ "obj-2", 0 ],
					"source" : [ "obj-8", 0 ]
				}

			}
, 			{
				"patchline" : 				{
					"destination" : [ "obj-18", 3 ],
					"source" : [ "obj-86", 3 ]
				}

			}
, 			{
				"patchline" : 				{
					"destination" : [ "obj-18", 2 ],
					"source" : [ "obj-86", 2 ]
				}

			}
, 			{
				"patchline" : 				{
					"destination" : [ "obj-18", 1 ],
					"source" : [ "obj-86", 1 ]
				}

			}
, 			{
				"patchline" : 				{
					"destination" : [ "obj-18", 0 ],
					"source" : [ "obj-86", 0 ]
				}

			}
 ],
		"parameters" : 		{
			"obj-8" : [ "live.gain~[5]", "HOA stream", 0 ],
			"obj-1" : [ "live.gain~[12]", "b-format stream", 0 ],
			"obj-24" : [ "live.menu[2]", "live.menu[1]", 0 ],
			"obj-31" : [ "live.gain~[6]", "b-format stream", 0 ],
			"obj-6" : [ "live.gain~[4]", "HOA stream", 0 ],
			"parameterbanks" : 			{

			}

		}
,
		"dependency_cache" : [ 			{
				"name" : "thru.maxpat",
				"bootpath" : "C74:/patchers/m4l/Pluggo for Live resources/patches",
				"type" : "JSON",
				"implicit" : 1
			}
, 			{
				"name" : "spat5.hoa.reduce~.mxo",
				"type" : "iLaX"
			}
, 			{
				"name" : "spat5.hoa.converter~.mxo",
				"type" : "iLaX"
			}
, 			{
				"name" : "spat5.hoa.sorting~.mxo",
				"type" : "iLaX"
			}
 ],
		"autosave" : 0,
		"styles" : [ 			{
				"name" : "AudioStatus_Menu",
				"default" : 				{
					"bgfillcolor" : 					{
						"type" : "color",
						"color" : [ 0.294118, 0.313726, 0.337255, 1 ],
						"color1" : [ 0.454902, 0.462745, 0.482353, 0.0 ],
						"color2" : [ 0.290196, 0.309804, 0.301961, 1.0 ],
						"angle" : 270.0,
						"proportion" : 0.39,
						"autogradient" : 0
					}

				}
,
				"parentstyle" : "",
				"multi" : 0
			}
, 			{
				"name" : "Default 11Bold Poletti",
				"default" : 				{
					"fontsize" : [ 11.0 ]
				}
,
				"parentstyle" : "",
				"multi" : 0
			}
, 			{
				"name" : "Default M4L",
				"default" : 				{
					"patchlinecolor" : [ 0.290196, 0.309804, 0.301961, 0.85 ],
					"fontname" : [ "Arial Bold" ],
					"fontsize" : [ 11.0 ]
				}
,
				"parentstyle" : "",
				"multi" : 0
			}
, 			{
				"name" : "Default M4L Poletti",
				"default" : 				{
					"patchlinecolor" : [ 0.290196, 0.309804, 0.301961, 0.85 ],
					"fontname" : [ "Arial Bold" ],
					"fontsize" : [ 10.0 ]
				}
,
				"parentstyle" : "",
				"multi" : 0
			}
, 			{
				"name" : "Default M4L-1",
				"default" : 				{
					"fontname" : [ "Arial" ],
					"bgfillcolor" : 					{
						"type" : "gradient",
						"color1" : [ 0.376471, 0.384314, 0.4, 1.0 ],
						"color2" : [ 0.290196, 0.309804, 0.301961, 1.0 ],
						"color" : [ 0.290196, 0.309804, 0.301961, 1.0 ],
						"angle" : 270.0,
						"proportion" : 0.39
					}
,
					"fontface" : [ 1 ],
					"fontsize" : [ 11.0 ]
				}
,
				"parentstyle" : "",
				"multi" : 0
			}
, 			{
				"name" : "Default Max7 Poletti",
				"default" : 				{
					"bgfillcolor" : 					{
						"type" : "gradient",
						"color1" : [ 0.376471, 0.384314, 0.4, 1.0 ],
						"color2" : [ 0.290196, 0.309804, 0.301961, 1.0 ],
						"color" : [ 0.290196, 0.309804, 0.301961, 1.0 ],
						"angle" : 270.0,
						"proportion" : 0.39
					}

				}
,
				"parentstyle" : "",
				"multi" : 0
			}
, 			{
				"name" : "jbb",
				"default" : 				{
					"fontname" : [ "Arial" ],
					"bgfillcolor" : 					{
						"type" : "gradient",
						"color1" : [ 0.376471, 0.384314, 0.4, 1.0 ],
						"color2" : [ 0.290196, 0.309804, 0.301961, 1.0 ],
						"color" : [ 0.290196, 0.309804, 0.301961, 1.0 ],
						"angle" : 270.0,
						"proportion" : 0.39
					}
,
					"fontsize" : [ 9.0 ]
				}
,
				"parentstyle" : "",
				"multi" : 0
			}
, 			{
				"name" : "ksliderWhite",
				"default" : 				{
					"color" : [ 1.0, 1.0, 1.0, 1.0 ]
				}
,
				"parentstyle" : "",
				"multi" : 0
			}
, 			{
				"name" : "newobjBlue-1",
				"default" : 				{
					"accentcolor" : [ 0.317647, 0.654902, 0.976471, 1.0 ]
				}
,
				"parentstyle" : "",
				"multi" : 0
			}
, 			{
				"name" : "newobjGreen-1",
				"default" : 				{
					"accentcolor" : [ 0.0, 0.533333, 0.168627, 1.0 ]
				}
,
				"parentstyle" : "",
				"multi" : 0
			}
, 			{
				"name" : "numberGold-1",
				"default" : 				{
					"accentcolor" : [ 0.764706, 0.592157, 0.101961, 1.0 ]
				}
,
				"parentstyle" : "",
				"multi" : 0
			}
 ]
	}

}
